<svg xmlns:xlink="http://www.w3.org/1999/xlink" xmlns="http://www.w3.org/2000/svg" height="32" width="32" class="close-svg"><defs><symbol id="clear" viewBox="0 0 24 24"><path fill="#A6B6B9" fill-rule="evenodd" d="M6.295 6.295a1.011 1.011 0 011.427 0L12 10.574l4.278-4.279a1.011 1.011 0 011.427 0 1.011 1.011 0 010 1.427L13.426 12l4.279 4.278a1.011 1.011 0 010 1.427 1.011 1.011 0 01-1.427 0L12 13.426l-4.278 4.279a1.011 1.011 0 01-1.427 0 1.011 1.011 0 010-1.427L10.574 12 6.295 7.722a1.011 1.011 0 010-1.427z"></path></symbol></defs>
                    <use xlink:href="#clear"></use>
                </svg>